<svg id="euDVrxm8R4p1" xmlns="http://www.w3.org/2000/svg" xmlns:xlink="http://www.w3.org/1999/xlink" viewBox="0 0 144 144" shape-rendering="geometricPrecision" text-rendering="geometricPrecision"><g transform="matrix(.1 0 0-.1 13.025513 118.5)"><path d="M2,798L5,666l90-36l90-35-92-3-93-3v-294L0,0h150h150v465v465h-150-151L2,798Z" fill="#fff"/><path d="M4392,647c-34-20-53-53-54-97-1-52,22-85,69-100c21-7,48-19,61-26c52-33,5-87-58-66-29,11-32,9-50-21l-20-32l27-12c39-17,129-16,163,2c58,30,79,119,40,168-11,14-44,35-72,45-29,11-57,26-62,35-15,24,12,50,46,45c22-4,29,0,34,16c17,60,20,56-43,56-32-1-68-6-81-13Z" transform="translate(-3870.87353 9.14484)" fill="#fff"/><path d="M4911,628c-20-49-84-216-106-275l-24-63h48c45,0,50,3,61,30c12,29,14,30,82,30s70-1,81-30c11-28,15-30,60-30c35,0,48,4,44,13-2,6-33,87-68,179l-64,168h-53c-45,0-54-3-61-22Zm85-140c9-29,19-59,22-65c3-9-9-13-42-13-28,0-46,4-46,12c0,21,34,118,41,118c4,0,15-24,25-52Z" transform="translate(-3977.20812 9.59009)" fill="#fff"/></g></svg>
