<svg version="1.0" xmlns="http://www.w3.org/2000/svg"
 width="533.000000pt" height="94.000000pt" viewBox="0 0 533.000000 144.000000"
 preserveAspectRatio="xMidYMid meet">
<g transform="translate(0.000000,124.000000) scale(0.100000,-0.100000)"
fill="#E7E7E7" stroke="none">
<path fill="#FFFFFF" d="M2150 470 l0 -470 155 0 155 0 0 341 0 341 99 -4 c122 -4 154 -21
159 -84 4 -60 -29 -87 -113 -92 l-65 -4 0 -116 0 -116 72 -114 c107 -171 75
-153 276 -150 l172 3 -106 159 c-95 143 -104 160 -88 169 41 23 107 94 132
142 23 43 27 62 27 135 0 69 -4 93 -23 128 -55 103 -154 171 -282 191 -36 6
-179 11 -317 11 l-253 0 0 -470z"/>
<path fill="#FFFFFF" d="M3517 908 c-8 -18 -85 -199 -172 -403 -86 -203 -170 -400 -186 -438
l-28 -67 168 0 167 0 20 62 20 63 128 3 c95 2 127 6 124 15 -3 7 -20 56 -39
109 l-34 98 -48 0 c-27 0 -47 4 -45 8 2 5 21 54 42 110 22 56 43 99 47 95 4
-5 37 -89 74 -188 36 -99 83 -224 103 -277 l37 -98 169 0 c156 0 168 1 162 18
-4 9 -93 221 -199 470 l-191 452 -153 0 -153 0 -13 -32z"/>
<path fill="#FFFFFF" d="M2 798 l3 -132 90 -36 90 -35 -92 -3 -93 -3 0 -294 0 -295 150 0 150
0 0 465 0 465 -150 0 -151 0 3 -132z"/>
<path fill="#FFFFFF" d="M370 465 l0 -465 155 0 155 0 2 211 3 210 169 -210 170 -211 143 0
143 0 0 465 0 465 -155 0 -155 0 0 -200 c0 -110 -3 -200 -7 -199 -5 0 -80 90
-168 199 l-160 199 -147 1 -148 0 0 -465z"/>
<path fill="#FFFFFF" d="M1380 465 l0 -465 130 0 130 0 0 155 0 155 165 0 165 0 0 120 0 120
-165 0 -165 0 0 60 0 60 220 0 220 0 0 130 0 130 -350 0 -350 0 0 -465z"/>

<path fill="#FFFFFF" d="M4392 647 c-34 -20 -53 -53 -54 -97 -1 -52 22 -85 69 -100 21 -7 48 -19 61 -26 52 -33 5 -87 -58 -66 -29 11 -32 9 -50 -21 l-20 -32 27 -12 c39 -17 129 -16 163 2 58 30 79 119 40 168 -11 14 -44 35 -72 45 -29 11 -57 26 -62 35 -15 24 12 50 46 45 22 -4 29 0 34 16 17 60 20 56 -43 56 -32 -1 -68 -6 -81 -13z"/>
<path fill="#FFFFFF" d="M4911 628 c-20 -49 -84 -216 -106 -275 l-24 -63 48 0 c45 0 50 3 61
30 12 29 14 30 82 30 68 0 70 -1 81 -30 11 -28 15 -30 60 -30 35 0 48 4 44 13
-2 6 -33 87 -68 179 l-64 168 -53 0 c-45 0 -54 -3 -61 -22z m85 -140 c9 -29
19 -59 22 -65 3 -9 -9 -13 -42 -13 -28 0 -46 4 -46 12 0 21 34 118 41 118 4 0
15 -24 25 -52z"/>
<path fill="#FFFFFF" d="M4630 345 l0 -55 60 0 60 0 0 55 0 55 -60 0 -60 0 0 -55z"/>
<path fill="#FFFFFF" d="M5210 345 l0 -55 60 0 60 0 0 55 0 55 -60 0 -60 0 0 -55z"/>
</g>
</svg>