<svg width="24" height="24" viewBox="0 0 24 24" fill="none" xmlns="http://www.w3.org/2000/svg">
<rect width="24" height="24" rx="3" fill="#33548C"/>
<path d="M3.04571 5.55484L3.09141 8.10968L4.46256 8.80645L5.83371 9.48387L4.43209 9.54193L3.01524 9.6V15.2903V21H5.30049H7.58574V12V3H5.30049H3L3.04571 5.55484Z" fill="white"/>
<path d="M10.9546 8.30045C10.4366 8.68755 10.1471 9.32626 10.1319 10.1779C10.1167 11.1843 10.4671 11.823 11.1831 12.1134C11.5031 12.2488 11.9144 12.4811 12.1125 12.6166C12.9047 13.2553 12.1886 14.3005 11.2288 13.894C10.787 13.6811 10.7413 13.7198 10.4671 14.3005L10.1624 14.9198L10.5737 15.1521C11.1679 15.4811 12.539 15.4617 13.057 15.1134C13.9407 14.5327 14.2606 12.8101 13.6664 11.8617C13.4988 11.5908 12.9961 11.1843 12.5695 10.9908C12.1277 10.7779 11.7011 10.4875 11.6249 10.3134C11.3964 9.84884 11.8078 9.34561 12.3257 9.44239C12.6609 9.5198 12.7676 9.44239 12.8437 9.13271C13.1027 7.97142 13.1484 8.04884 12.1886 8.04884C11.7011 8.06819 11.1527 8.16497 10.9546 8.30045Z" fill="white"/>
<path d="M17.2416 8.65954C16.9369 9.60793 15.9618 12.8402 15.6266 13.9821L15.261 15.2015H15.9923C16.6779 15.2015 16.754 15.1434 16.9216 14.6208C17.1044 14.0595 17.1349 14.0402 18.1709 14.0402C19.2069 14.0402 19.2373 14.0595 19.4049 14.6208C19.5725 15.1628 19.6334 15.2015 20.319 15.2015C20.8522 15.2015 21.0503 15.1241 20.9894 14.9499C20.9589 14.8337 20.4866 13.266 19.9534 11.4853L18.9783 8.23374H18.1709C17.4853 8.23374 17.3482 8.2918 17.2416 8.65954ZM18.5365 11.3692C18.6736 11.9305 18.826 12.5112 18.8717 12.6273C18.9174 12.8015 18.7346 12.8789 18.2318 12.8789C17.8052 12.8789 17.531 12.8015 17.531 12.6466C17.531 12.2402 18.049 10.3628 18.1557 10.3628C18.2166 10.3628 18.3842 10.8273 18.5365 11.3692Z" fill="white"/>
</svg>
