<svg version="1.0" xmlns="http://www.w3.org/2000/svg"
 width="2620.000000pt" height="412.000000pt" viewBox="0 0 2620.000000 412.000000"
 preserveAspectRatio="xMidYMid meet">
<g transform="translate(0.000000,412.000000) scale(0.100000,-0.100000)"
fill="#0e4f81" stroke="none">
<path d="M1160 4099 c-570 -65 -1034 -500 -1135 -1064 -23 -129 -22 -343 3
-470 102 -518 480 -905 1007 -1031 60 -15 159 -18 686 -23 l615 -6 42 -28
c117 -77 105 -250 -22 -308 -39 -18 -90 -19 -1198 -19 l-1158 0 0 -570 0 -571
1353 4 c1256 3 1357 4 1427 21 264 62 459 167 642 344 196 190 317 410 375
682 25 119 24 382 -1 499 -59 274 -167 473 -360 667 -190 189 -384 296 -651
357 -84 19 -132 21 -695 26 l-605 6 -37 23 c-99 61 -112 190 -29 273 20 20 54
42 76 48 28 8 380 11 1183 11 l1142 0 0 570 0 570 -1292 -1 c-711 -1 -1327 -5
-1368 -10z"/>
<path d="M4127 4103 c-4 -3 -7 -268 -7 -588 l0 -583 128 -49 c70 -28 253 -99
407 -159 l279 -109 -407 -3 -407 -2 0 -1290 0 -1290 645 0 645 0 0 2040 0
2040 -638 0 c-351 0 -642 -3 -645 -7z"/>
<path d="M6846 4099 c-505 -58 -930 -402 -1090 -879 -53 -159 -69 -275 -63
-460 4 -120 11 -178 31 -258 111 -444 432 -790 865 -931 174 -58 222 -61 830
-61 352 0 570 -4 593 -10 48 -14 97 -55 114 -97 18 -42 18 -117 0 -151 -19
-36 -65 -78 -99 -91 -19 -8 -391 -11 -1183 -11 l-1154 0 0 -570 0 -570 1301 0
c1442 0 1413 -1 1614 65 443 145 768 507 871 970 24 110 29 350 10 470 -94
572 -553 1014 -1126 1085 -49 6 -313 10 -627 10 -358 0 -551 4 -570 11 -34 13
-80 55 -99 91 -18 34 -18 109 0 151 17 42 66 83 114 97 24 6 424 10 1180 10
l1142 0 0 570 0 570 -1292 -1 c-711 -1 -1324 -5 -1362 -10z"/>
<path d="M11715 4103 c-103 -6 -274 -34 -381 -62 -353 -93 -643 -256 -907
-510 -185 -178 -310 -351 -422 -583 -299 -617 -269 -1340 79 -1933 283 -479
775 -837 1312 -955 215 -47 274 -49 1227 -50 l897 0 0 570 0 570 -872 0 c-561
0 -896 4 -938 11 -193 31 -357 116 -500 259 -190 190 -281 424 -267 685 17
302 182 578 441 734 68 41 152 75 254 104 76 21 89 21 980 25 l902 3 0 569 0
570 -877 -2 c-483 -1 -900 -3 -928 -5z"/>
<path d="M15715 4104 c-657 -51 -1234 -391 -1589 -936 -79 -121 -178 -330
-225 -474 -137 -418 -134 -884 9 -1299 351 -1016 1407 -1584 2455 -1319 645
164 1191 664 1414 1298 80 228 114 429 114 686 0 285 -43 510 -146 765 -271
671 -883 1153 -1597 1259 -108 16 -346 27 -435 20z m328 -1160 c154 -32 300
-110 420 -224 170 -161 259 -339 288 -572 35 -293 -108 -625 -349 -808 -147
-111 -322 -176 -507 -187 -260 -15 -495 77 -685 267 -190 190 -281 424 -267
685 24 438 360 801 791 855 85 10 216 4 309 -16z"/>
<path d="M18240 2060 l0 -2050 670 0 670 0 0 1481 0 1481 378 -5 c318 -3 386
-7 437 -21 142 -41 254 -133 295 -244 28 -72 24 -183 -8 -255 -25 -56 -108
-147 -166 -181 -102 -59 -153 -69 -393 -74 l-223 -4 0 -497 0 -496 373 -592
372 -593 768 0 c422 0 767 2 767 5 0 3 -206 320 -459 704 l-459 699 92 59
c383 248 614 587 682 1003 19 114 14 347 -10 455 -60 267 -176 477 -375 676
-256 256 -573 405 -1013 476 -91 15 -236 17 -1250 20 l-1148 4 0 -2051z"/>
<path d="M22380 2060 l0 -2050 675 0 675 0 0 1481 0 1481 373 -5 c397 -5 427
-8 533 -58 87 -41 147 -98 186 -177 29 -59 33 -76 33 -147 0 -71 -4 -89 -33
-147 -57 -117 -175 -201 -328 -233 -46 -10 -131 -15 -256 -15 l-188 0 0 -480
0 -480 313 0 c401 0 542 17 775 95 543 182 947 618 1037 1120 21 116 21 332 1
447 -115 636 -700 1127 -1438 1207 -63 7 -501 11 -1228 11 l-1130 0 0 -2050z"/>
</g>
</svg>
